# Blender 4.5.3 LTS
# www.blender.org
mtllib Untitled.mtl
o Untitled
v -0.400000 3.900000 -0.000000
v -0.400000 4.000000 0.100000
v -0.400000 4.000000 -0.300000
v -0.400000 5.000000 -0.000000
v -0.300000 4.000000 -0.000000
v -0.300000 5.000000 -0.200000
v -0.300000 5.000000 -0.300000
v -0.300000 5.100000 0.100000
v -0.100000 3.700000 -0.300000
v 0.100000 -0.000000 -0.300000
v 0.100000 4.300000 -0.000000
v 0.200000 5.800000 0.100000
v 0.200000 5.800000 -0.300000
v 0.500000 4.300000 -0.200000
v 0.500000 4.700000 -0.200000
v -0.300000 3.900000 0.100000
v -0.300000 4.000000 0.100000
v -0.100000 3.700000 0.100000
v 0.000000 5.300000 0.100000
v 0.100000 0.000000 0.100000
v 0.200000 5.300000 0.100000
v 0.500000 0.000000 0.100000
v 0.500000 4.100000 0.100000
v 0.500000 4.900000 0.100000
v -0.400000 4.000000 -0.000000
v -0.400000 5.100000 -0.000000
v -0.300000 3.900000 -0.000000
v -0.300000 5.000000 -0.000000
v 0.500000 4.700000 -0.000000
v -0.500000 5.000000 -0.200000
v -0.400000 4.000000 -0.200000
v -0.400000 5.100000 -0.200000
v -0.300000 5.100000 -0.200000
v 0.100000 4.700000 -0.200000
v -0.400000 5.000000 -0.300000
v -0.300000 3.900000 -0.300000
v -0.300000 5.100000 -0.300000
v -0.200000 4.900000 -0.300000
v -0.100000 3.900000 -0.300000
v 0.500000 -0.000000 -0.300000
v 0.500000 4.100000 -0.300000
v 0.500000 4.900000 -0.300000
v 0.100000 3.700000 0.100000
v 0.100000 3.700000 -0.300000
v -0.100000 3.900000 0.100000
v -0.400000 3.900000 -0.200000
v -0.300000 3.900000 -0.200000
v -0.500000 4.000000 -0.000000
v -0.500000 4.000000 -0.200000
v -0.300000 4.000000 -0.200000
v -0.300000 4.000000 -0.300000
v 0.500000 4.300000 -0.000000
v 0.100000 4.300000 -0.200000
v -0.200000 4.900000 0.100000
v -0.200000 4.100000 0.100000
v -0.200000 4.100000 -0.300000
v 0.100000 4.700000 -0.000000
v -0.400000 5.000000 0.100000
v -0.300000 5.000000 0.100000
v -0.500000 5.000000 -0.000000
v -0.400000 5.000000 -0.200000
v 0.000000 5.100000 0.100000
v -0.300000 5.100000 -0.000000
v 0.000000 5.100000 -0.300000
v 0.000000 5.300000 -0.300000
v 0.200000 5.300000 -0.300000
v 0.500000 5.800000 0.100000
v 0.500000 5.800000 -0.300000
vn -0.0000 -0.0000 1.0000
vn -0.0000 -0.0000 -1.0000
vn -1.0000 -0.0000 -0.0000
vn -0.0000 -1.0000 -0.0000
vn 1.0000 -0.0000 -0.0000
vn -0.0000 1.0000 -0.0000
vt 0.300000 0.500000
vt 0.366667 0.433333
vt 0.366667 0.500000
vt 0.533333 0.300000
vt 0.516667 0.133333
vt 0.516667 0.300000
vt 0.300000 0.066667
vt 0.916667 0.133333
vt 0.916667 0.066667
vt 0.416667 0.333333
vt 0.300000 0.266667
vt 0.416667 0.266667
vt 0.300000 0.550000
vt 0.316667 0.533333
vt 0.316667 0.550000
vt 0.450000 0.133333
vt 0.300000 0.200000
vt 0.300000 0.133333
vt 0.483333 0.433333
vt 0.433333 0.500000
vt 0.483333 0.500000
vt 0.433333 0.350000
vt 0.433333 0.383333
vt 0.483333 0.333333
vt 0.500000 0.300000
vt 0.550000 0.183333
vt 0.533333 0.200000
vt 0.550000 0.200000
vt 0.533333 0.250000
vt 0.550000 0.266667
vt 0.550000 0.250000
vt 0.466667 0.400000
vt 0.633333 0.416667
vt 0.633333 0.400000
vt 0.533333 0.283333
vt 0.550000 0.266667
vt 0.550000 0.283333
vt 0.433333 0.500000
vt 0.366667 0.533333
vt 0.433333 0.533333
vt 0.550000 0.183333
vt 0.533333 0.166667
vt 0.550000 0.166667
vt 0.216667 0.850000
vt 0.300000 0.816667
vt 0.183333 0.816667
vt 0.416667 0.333333
vt 0.300000 0.400000
vt 0.416667 0.400000
vt 0.466667 0.500000
vt 0.450000 0.533333
vt 0.466667 0.533333
vt 0.550000 0.216667
vt 0.533333 0.233333
vt 0.550000 0.233333
vt 0.500000 0.266667
vt 0.433333 0.200000
vt 0.500000 0.200000
vt 0.550000 0.400000
vt 0.516667 0.333333
vt 0.550000 0.333333
vt 0.433334 0.500000
vt 0.450000 0.533333
vt 0.450000 0.500000
vt 0.466667 0.416667
vt 0.633333 0.433333
vt 0.466667 0.150000
vt 0.500000 0.133333
vt 0.466667 0.183333
vt 0.016667 0.666667
vt 0.050000 0.650000
vt 0.033333 0.683333
vt 0.566667 0.300000
vt 0.500000 0.333333
vt 0.983333 0.000000
vt 0.300000 0.066667
vt 0.300000 0.000000
vt 0.483333 0.433333
vt 0.516667 0.500000
vt 0.516667 0.433333
vt 0.483333 0.533333
vt 0.466667 0.500000
vt 0.516667 0.400000
vt 0.550000 0.216667
vt 0.300000 0.266667
vt 0.300000 0.200000
vt 0.333333 0.550000
vt 0.316667 0.533333
vt 0.316667 0.550000
vt 0.533333 0.133333
vt 0.550000 0.166667
vt 0.550000 0.133333
vt 0.550000 0.533333
vt 0.550000 0.500000
vt 0.533333 0.233333
vt 0.550000 0.250000
vt 0.550000 0.233333
vt 0.350000 0.533333
vt 0.366667 0.550000
vt 0.366667 0.533333
vt 0.333333 0.533333
vt 0.350000 0.550000
vt 0.300000 0.400000
vt 0.466667 0.433333
vt 0.466667 0.400000
vt 0.550000 0.300000
vt 0.533333 0.300000
vt 0.550000 0.433333
vt 0.550000 0.500000
vt 0.300000 0.433333
vt 0.300000 0.133333
vt 0.300000 0.333333
vt 0.300000 0.533333
vt 0.450000 0.200000
vt 0.433333 0.433333
vt 0.416667 0.350000
vt 0.416667 0.383333
vt 0.433333 0.400000
vt 0.483333 0.400000
vt 0.433333 0.333333
vt 0.500000 0.133333
vt 0.533333 0.183333
vt 0.533333 0.266667
vt 0.533333 0.183333
vt 0.300000 0.683333
vt 0.233333 0.000000
vt 0.233333 0.616667
vt 0.200000 0.616667
vt 0.200000 0.650000
vt 0.183333 0.683333
vt 0.166667 0.650000
vt 0.166667 0.666667
vt 0.150000 0.666667
vt 0.150000 0.833333
vt 0.166667 0.833333
vt 0.166667 0.850000
vt 0.250000 0.966667
vt 0.300000 0.966667
vt 0.216667 0.883333
vt 0.250000 0.883333
vt 0.300000 0.333333
vt 0.450000 0.500000
vt 0.533333 0.216667
vt 0.433333 0.266667
vt 0.433334 0.533333
vt 0.466667 0.433333
vt 0.450000 0.183333
vt 0.450000 0.150000
vt 0.466667 0.133333
vt 0.500000 0.200000
vt 0.466667 0.200000
vt 0.000000 0.833333
vt 0.000000 0.666667
vt 0.016667 0.650000
vt 0.050000 0.616667
vt 0.083333 0.616667
vt 0.083333 0.000000
vt 0.150000 0.000000
vt 0.150000 0.816667
vt 0.150000 0.966667
vt 0.100000 0.966667
vt 0.100000 0.883333
vt 0.066667 0.883333
vt 0.066667 0.850000
vt 0.016667 0.850000
vt 0.016667 0.833333
vt 0.033333 0.816667
vt 0.150000 0.683333
vt 0.566667 0.333333
vt 0.983333 0.066667
vt 0.483333 0.500000
vt 0.433333 0.433333
vt 0.466667 0.533333
vt 0.533333 0.216667
vt 0.533333 0.166667
vt 0.533333 0.250000
vt 0.300000 0.433333
vt 0.300000 0.533333
s 0
usemtl Untitled_Material.001
f 57/1/1 52/2/1 29/3/1
f 61/4/2 49/5/2 30/6/2
f 10/7/3 43/8/3 44/9/3
f 24/10/4 38/11/4 42/12/4
f 26/13/1 28/14/1 63/15/1
f 68/16/5 24/17/5 42/18/5
f 68/19/6 12/20/6 67/21/6
f 33/22/6 63/23/6 64/24/6
f 60/25/1 25/5/1 4/6/1
f 7/26/6 61/27/6 6/28/6
f 7/29/3 33/30/3 37/31/3
f 3/32/3 61/33/3 35/34/3
f 25/35/1 27/36/1 5/37/1
f 15/38/6 57/39/6 29/40/6
f 50/41/4 3/42/4 51/43/4
f 64/44/2 42/45/2 38/46/2
f 41/47/6 55/48/6 23/49/6
f 61/50/6 60/51/6 4/52/6
f 28/53/6 58/54/6 59/55/6
f 22/56/4 10/57/4 40/58/4
f 43/59/4 9/60/4 44/61/4
f 46/62/3 25/63/3 31/64/3
f 25/65/3 58/66/3 4/33/3
f 47/67/4 39/68/4 27/69/4
f 17/70/1 45/71/1 55/72/1
f 15/73/5 52/74/5 14/25/5
f 41/75/5 22/76/5 40/77/5
f 9/78/3 45/79/3 39/80/3
f 15/38/2 53/2/2 34/3/2
f 25/81/4 49/82/4 31/21/4
f 64/24/3 19/83/3 65/60/3
f 17/84/4 25/27/4 5/28/4
f 38/57/5 55/85/5 56/86/5
f 33/87/2 61/88/2 32/89/2
f 61/90/3 26/91/3 32/92/3
f 53/21/3 57/93/3 34/94/3
f 36/95/3 50/96/3 51/97/3
f 28/98/3 8/99/3 63/100/3
f 27/101/3 17/102/3 5/98/3
f 49/103/3 60/104/3 30/105/3
f 66/12/3 12/74/3 13/56/3
f 50/106/2 46/35/2 31/107/2
f 66/108/6 19/79/6 21/109/6
f 52/39/4 53/1/4 14/3/4
f 57/1/1 11/110/1 52/2/1
f 61/4/2 31/90/2 49/5/2
f 10/7/3 20/111/3 43/8/3
f 24/10/4 54/112/4 38/11/4
f 26/13/1 4/113/1 28/14/1
f 68/16/5 67/114/5 24/17/5
f 68/19/6 13/115/6 12/20/6
f 33/22/6 32/116/6 26/117/6
f 63/23/6 8/118/6 62/119/6
f 33/22/6 26/117/6 63/23/6
f 64/24/6 37/120/6 33/22/6
f 63/23/6 62/119/6 64/24/6
f 60/25/1 48/121/1 25/5/1
f 7/26/6 35/122/6 61/27/6
f 7/29/3 6/123/3 33/30/3
f 3/32/3 31/65/3 61/33/3
f 25/35/1 1/123/1 27/36/1
f 15/38/6 34/3/6 57/39/6
f 50/41/4 31/124/4 3/42/4
f 41/125/2 40/77/2 10/126/2
f 44/127/2 9/128/2 39/129/2
f 41/125/2 10/126/2 44/127/2
f 56/130/2 41/125/2 44/127/2
f 39/129/2 36/131/2 51/132/2
f 56/130/2 44/127/2 39/129/2
f 56/130/2 39/129/2 51/132/2
f 51/132/2 3/133/2 35/134/2
f 7/135/2 37/136/2 64/44/2
f 51/132/2 35/134/2 7/135/2
f 38/46/2 56/130/2 51/132/2
f 13/137/2 68/138/2 42/45/2
f 64/44/2 65/139/2 66/140/2
f 66/140/2 13/137/2 42/45/2
f 38/46/2 51/132/2 7/135/2
f 64/44/2 66/140/2 42/45/2
f 38/46/2 7/135/2 64/44/2
f 41/47/6 56/141/6 55/48/6
f 61/50/6 30/142/6 60/51/6
f 28/53/6 4/143/6 58/54/6
f 22/56/4 20/144/4 10/57/4
f 43/59/4 18/83/4 9/60/4
f 46/62/3 1/145/3 25/63/3
f 25/65/3 2/146/3 58/66/3
f 1/147/4 46/148/4 47/67/4
f 47/67/4 36/149/4 39/68/4
f 39/68/4 45/150/4 16/151/4
f 27/69/4 1/147/4 47/67/4
f 39/68/4 16/151/4 27/69/4
f 58/152/1 2/153/1 17/70/1
f 17/70/1 16/154/1 45/71/1
f 45/71/1 18/155/1 43/156/1
f 43/156/1 20/157/1 22/158/1
f 24/159/1 67/160/1 12/161/1
f 21/162/1 19/163/1 62/164/1
f 24/159/1 12/161/1 21/162/1
f 24/159/1 21/162/1 62/164/1
f 62/164/1 8/165/1 59/166/1
f 59/166/1 58/152/1 17/70/1
f 24/159/1 62/164/1 59/166/1
f 54/167/1 24/159/1 59/166/1
f 43/156/1 22/158/1 23/168/1
f 55/72/1 54/167/1 59/166/1
f 43/156/1 23/168/1 55/72/1
f 45/71/1 43/156/1 55/72/1
f 55/72/1 59/166/1 17/70/1
f 15/73/5 29/169/5 52/74/5
f 41/75/5 23/170/5 22/76/5
f 9/78/3 18/171/3 45/79/3
f 15/38/2 14/172/2 53/2/2
f 25/81/4 48/173/4 49/82/4
f 64/24/3 62/119/3 19/83/3
f 17/84/4 2/174/4 25/27/4
f 38/57/5 54/144/5 55/85/5
f 33/87/2 6/101/2 61/88/2
f 61/90/3 4/175/3 26/91/3
f 53/21/3 11/81/3 57/93/3
f 36/95/3 47/176/3 50/96/3
f 28/98/3 59/102/3 8/99/3
f 27/101/3 16/87/3 17/102/3
f 49/103/3 48/177/3 60/104/3
f 66/12/3 21/10/3 12/74/3
f 50/106/2 47/37/2 46/35/2
f 66/108/6 65/80/6 19/79/6
f 52/39/4 11/178/4 53/1/4
